<?xml version="1.0" encoding="iso-8859-1"?>
<!-- Generator: Adobe Illustrator 19.0.0, SVG Export Plug-In . SVG Version: 6.00 Build 0)  -->
<svg version="1.1" id="Layer_1" xmlns="http://www.w3.org/2000/svg" xmlns:xlink="http://www.w3.org/1999/xlink" x="0px" y="0px"
	 viewBox="0 0 512 512" style="enable-background:new 0 0 512 512;" xml:space="preserve">
<path style="fill:#5B452E;" d="M333.913,44.522v44.522c0,6.147-4.983,11.13-11.13,11.13s-11.13-4.983-11.13-11.13V44.522
	c0-12.275-9.986-22.261-22.261-22.261h-66.783c-12.275,0-22.261,9.986-22.261,22.261v44.522c0,6.147-4.983,11.13-11.13,11.13
	c-6.147,0-11.13-4.983-11.13-11.13V44.522C178.087,19.972,198.059,0,222.609,0h66.783C313.941,0,333.913,19.972,333.913,44.522z"/>
<path style="fill:#00A384;" d="M189.217,467.478c0,24.549-19.972,44.522-44.522,44.522s-44.522-19.972-44.522-44.522
	s19.972-44.522,44.522-44.522S189.217,442.929,189.217,467.478z M367.304,422.957c-24.549,0-44.522,19.972-44.522,44.522
	S342.755,512,367.304,512s44.522-19.972,44.522-44.522S391.854,422.957,367.304,422.957z"/>
<path style="fill:#145B60;" d="M144.696,422.957c-24.549,0-44.522,19.972-44.522,44.522S120.146,512,144.696,512
	s44.522-19.972,44.522-44.522S169.245,422.957,144.696,422.957z M144.696,489.739c-12.275,0-22.261-9.986-22.261-22.261
	s9.986-22.261,22.261-22.261s22.261,9.986,22.261,22.261S156.97,489.739,144.696,489.739z M367.304,422.957
	c-24.549,0-44.522,19.972-44.522,44.522S342.755,512,367.304,512s44.522-19.972,44.522-44.522S391.854,422.957,367.304,422.957z
	 M367.304,489.739c-12.275,0-22.261-9.986-22.261-22.261s9.986-22.261,22.261-22.261s22.261,9.986,22.261,22.261
	S379.579,489.739,367.304,489.739z"/>
<path style="fill:#B94B00;" d="M445.217,110.101V424.16c0,23.886-19.972,43.319-44.522,43.319H111.304
	c-24.549,0-44.522-19.433-44.522-43.319V110.101c0-23.886,19.972-43.319,44.522-43.319h289.391
	C425.245,66.783,445.217,86.215,445.217,110.101z"/>
<path style="fill:#CC5200;" d="M317.217,400.696H194.783c-24.588,0-44.522-19.934-44.522-44.522V66.783h211.478v289.391
	C361.739,380.762,341.806,400.696,317.217,400.696z"/>
<path style="fill:#F7DB4F;" d="M368.654,201.698l-15.741,15.741c-6.51,6.509-15.061,9.764-23.611,9.764
	c-8.55,0-17.102-3.255-23.611-9.764l-15.741-15.741c-13.019-13.019-13.019-34.203,0-47.223l15.741-15.741
	c13.019-13.018,34.203-13.018,47.223,0l15.741,15.741C381.674,167.495,381.674,188.679,368.654,201.698z"/>
<path style="fill:#D8962B;" d="M352.914,185.957l-15.741,15.741c-4.339,4.34-11.401,4.34-15.741,0l-15.741-15.741
	c-4.34-4.34-4.34-11.401,0-15.741l15.741-15.741c2.169-2.17,5.02-3.255,7.87-3.255c2.851,0,5.701,1.085,7.87,3.255l15.741,15.741
	C357.254,174.556,357.254,181.618,352.914,185.957z"/>
<path style="fill:#C3C644;" d="M166.957,356.174c-24.549,0-44.522-19.972-44.522-44.522s19.972-44.522,44.522-44.522
	s44.522,19.972,44.522,44.522S191.506,356.174,166.957,356.174z"/>
<path style="fill:#999B2D;" d="M189.217,311.652c0,12.275-9.986,22.261-22.261,22.261s-22.261-9.986-22.261-22.261
	s9.986-22.261,22.261-22.261S189.217,299.378,189.217,311.652z"/>
<path style="fill:#FF4800;" d="M200.348,222.609h-44.522c-18.412,0-33.391-14.979-33.391-33.391v-22.261
	c0-18.412,14.979-33.391,33.391-33.391h44.522c18.412,0,33.391,14.979,33.391,33.391v22.261
	C233.739,207.629,218.76,222.609,200.348,222.609z"/>
<path style="fill:#C92B00;" d="M200.348,155.826c6.137,0,11.13,4.993,11.13,11.13v22.261c0,6.137-4.993,11.13-11.13,11.13h-44.522
	c-6.137,0-11.13-4.993-11.13-11.13v-22.261c0-6.137,4.993-11.13,11.13-11.13H200.348z"/>
<g>
</g>
<g>
</g>
<g>
</g>
<g>
</g>
<g>
</g>
<g>
</g>
<g>
</g>
<g>
</g>
<g>
</g>
<g>
</g>
<g>
</g>
<g>
</g>
<g>
</g>
<g>
</g>
<g>
</g>
</svg>
